<?xml version="1.0" ?><!DOCTYPE svg  PUBLIC '-//W3C//DTD SVG 1.0//EN'  'http://www.w3.org/TR/2001/REC-SVG-20010904/DTD/svg10.dtd'><svg enable-background="new 0 0 12 32" height="32" overflow="visible" viewBox="0 0 12 32" width="12" xml:space="preserve" xmlns="http://www.w3.org/2000/svg" xmlns:xlink="http://www.w3.org/1999/xlink"><g><g id="Pixel_Grid_1_"/><g id="Carrot_1_"><g id="Carrot"><polygon fill="#34B67A" id="Leaves_1_" points="5,12 8,1 12,3 7,12 "/><polygon fill="#0BA55F" id="Leaves" points="5,12 0,2 6,0 6,12 "/><path d="M6,11.038c-2.762,0-5,2.238-5,5C1,21.972,2.851,27.471,6,32        c3.148-4.529,5-10.028,5-15.962C11,13.276,8.762,11.038,6,11.038z" fill="#F46E3B" id="BG"/><path d="M7,19.5C7,19.776,7.224,20,7.5,20h3.208        c0.047-0.331,0.082-0.666,0.117-1H7.5C7.224,19,7,19.224,7,19.5z M7.5,16h3.496c-0.003-0.343-0.039-0.677-0.107-1H7.5        C7.224,15,7,15.224,7,15.5S7.224,16,7.5,16z M7,17.5C7,17.776,7.224,18,7.5,18h3.424c0.022-0.331,0.027-0.666,0.039-1H7.5        C7.224,17,7,17.224,7,17.5z" fill="#E56239" id="Strips"/></g></g></g></svg>