<?xml version="1.0" ?><svg enable-background="new 0 0 64 64" height="64px" id="Layer_1" version="1.1" viewBox="0 0 64 64" width="64px" xml:space="preserve" xmlns="http://www.w3.org/2000/svg" xmlns:xlink="http://www.w3.org/1999/xlink"><circle cx="32" cy="32" fill="#4F5D73" r="32"/><line fill="none" stroke="#76C2AF" stroke-linecap="round" stroke-miterlimit="10" stroke-width="4" x1="32" x2="32" y1="24" y2="49"/><path d="M49.911,37.22c-0.708-0.362-1.562-0.27-2.178,0.233c-0.046,0.038-4.611,3.758-10.129,6.795  c-2.775,1.528-4.532,3.411-5.652,5.194c-1.12-1.784-2.878-3.667-5.653-5.194c-5.507-3.032-9.971-6.745-10.016-6.782  c-0.613-0.513-1.472-0.612-2.185-0.251c-0.713,0.36-1.144,1.109-1.095,1.907c0.385,6.333,4.832,18.31,18.903,18.31  c0.015,0,0.029-0.004,0.044-0.004c0.015,0,0.029,0.004,0.044,0.004c14.148,0,18.615-11.977,19-18.31  C51.044,38.328,50.618,37.582,49.911,37.22z" fill="#231F20" opacity="0.2"/><path d="  M31.996,53.432c0,0,0-5.813,6.573-9.432C44.327,40.83,49,37,49,37S48,53.432,31.996,53.432z" fill="#76C2AF" stroke="#76C2AF" stroke-linecap="round" stroke-linejoin="round" stroke-miterlimit="10" stroke-width="4"/><path d="  M31.907,53.432c0,0,0-5.813-6.573-9.432C19.577,40.83,15,37,15,37S16,53.432,31.907,53.432z" fill="#76C2AF" stroke="#76C2AF" stroke-linecap="round" stroke-linejoin="round" stroke-miterlimit="10" stroke-width="4"/><circle cx="26" cy="24" fill="#231F20" opacity="0.2" r="8"/><circle cx="38" cy="24" fill="#231F20" opacity="0.2" r="8"/><circle cx="32" cy="20" fill="#231F20" opacity="0.2" r="8"/><circle cx="32" cy="30" fill="#231F20" opacity="0.2" r="8"/><circle cx="26" cy="22" fill="#C75C5C" r="8"/><circle cx="38" cy="22" fill="#C75C5C" r="8"/><circle cx="32" cy="16" fill="#C75C5C" r="8"/><circle cx="32" cy="28" fill="#C75C5C" r="8"/><circle cx="32" cy="24" fill="#231F20" opacity="0.2" r="5"/><circle cx="32" cy="22" fill="#F5CF87" r="5"/></svg>