<?xml version="1.0" ?><!DOCTYPE svg  PUBLIC '-//W3C//DTD SVG 1.1//EN'  'http://www.w3.org/Graphics/SVG/1.1/DTD/svg11.dtd'><svg height="140px" id="Layer_1" style="enable-background:new 0 0 140 140;" version="1.1" viewBox="0 0 140 140" width="140px" xml:space="preserve" xmlns="http://www.w3.org/2000/svg" xmlns:xlink="http://www.w3.org/1999/xlink"><g><path d="M70,130c-33.084,0-60-26.916-60-60c0-33.083,26.916-60,60-60s60,26.917,60,60   C130,103.084,103.084,130,70,130z" style="fill:#F2F2F2;"/><circle cx="70" cy="70" r="58.064" style="fill:#90B3C6;"/><g><path d="M82.35,72.907c-2.35,0-4.635-0.438-6.797-1.302l-10.056-0.088c-2.223,0.922-4.578,1.39-7.011,1.39    c-9.932,0-18.012-7.896-18.012-17.602c0-9.708,8.08-17.604,18.012-17.604c0.896,0,1.813,0.071,2.739,0.212    c1.167-5.877,6.411-10.193,12.601-10.193c6.272,0,11.593,4.451,12.651,10.461c8.086,1.855,13.883,8.951,13.883,17.125    C100.361,65.011,92.281,72.907,82.35,72.907z" style="fill:#49A373;"/><path d="M78.672,72.529c0.063,0.013,0.125,0.033,0.188,0.045c1.09,0.21,2.2,0.314,3.327,0.324    c0.04,0,0.079,0.006,0.119,0.006c9.912-0.025,18.01-7.909,18.01-17.6c0-8.174-5.773-15.269-13.858-17.125    c-1.062-6.008-6.363-10.65-12.633-10.655c-0.01,0-0.019-0.192-0.027-0.192c-0.004,0-0.007,0-0.011,0    c-0.466,0-0.925,0.228-1.378,0.277c-0.957,0.104-1.773,0.504-2.773,0.803l0,0v43.143l5.912,0.051    c0.538,0.215,1.087,0.402,1.639,0.564C77.674,72.313,78.173,72.428,78.672,72.529z" style="fill:#3F8C63;"/><path d="M86.479,38.18c-1.06-6.01-6.379-10.461-12.651-10.461c-0.998,0-1.97,0.124-2.906,0.336    c4.952,1.128,8.86,5.068,9.753,10.125c8.085,1.855,13.882,8.951,13.882,17.125c0,8.743-6.563,15.996-15.122,17.354    c0.959,0.153,1.932,0.249,2.917,0.249c9.933,0,18.013-7.896,18.013-17.602C100.361,47.131,94.564,40.036,86.479,38.18z" style="fill:#307D52;"/><path d="M83.549,105.333H56.451c-0.534,0-0.968-0.465-0.968-1s0.434-1,0.968-1h3.848    c2.716,0,2.336-3.676,2.336-4.671V58.871c0-3.468,3.031-6.291,6.5-6.291s6.5,2.822,6.5,6.291v39.792    c0,1.925,4.125,4.671,6.608,4.671h1.306c0.534,0,0.967,0.465,0.967,1S84.083,105.333,83.549,105.333z" style="fill:#6E553D;"/><path d="M83.549,103.333h-1.306c-2.483,0-6.608-2.746-6.608-4.671V71.693V58.871c0-3.305-3-6.017-6-6.266    v52.728h11.489h1.393h1.032c0.534,0,0.967-0.465,0.967-1S84.083,103.333,83.549,103.333z" style="fill:#594531;"/><path d="M83.549,103.333h-1.306c-2.483,0-6.608-2.746-6.608-4.671V58.871c0-3.468-2.736-6.291-6.204-6.291    c-0.324,0-0.716,0.032-1.028,0.08c3.166,0.471,5.232,3.177,5.232,6.443v41.265c0,1.996,4.841,4.965,7.489,4.965h1.393h1.032    c0.534,0,0.967-0.465,0.967-1S84.083,103.333,83.549,103.333z" style="fill:#4A3929;"/></g></g></svg>